<svg width="120" height="44" viewBox="0 0 120 44" fill="none" xmlns="http://www.w3.org/2000/svg">
<g clip-path="url(#clip0_8027_1574)">
<path d="M21.9846 43.8C34.0585 43.8 43.8463 34.0122 43.8463 21.9383C43.8463 9.86447 34.0585 0.0766602 21.9846 0.0766602C9.91073 0.0766602 0.122925 9.86447 0.122925 21.9383C0.122925 34.0122 9.91073 43.8 21.9846 43.8Z" fill="#0089FF"/>
<path d="M24.8964 13.2914H14.5299C13.5744 13.2914 12.7999 14.0658 12.7999 15.0213V28.857C12.7999 29.8125 13.5744 30.587 14.5299 30.587H24.8964C25.8519 30.587 26.6264 29.8125 26.6264 28.857C26.6264 27.9015 25.8519 27.127 24.8964 27.127H16.2585V23.6685H24.8964C25.8519 23.6685 26.6264 22.894 26.6264 21.9385C26.6264 20.983 25.8519 20.2085 24.8964 20.2085H16.2585V16.75H24.8964C25.8519 16.75 26.6264 15.9755 26.6264 15.02C26.6264 14.0645 25.8519 13.29 24.8964 13.29V13.2914Z" fill="white"/>
<path d="M35.6519 21.5534L31.0118 16.9133C30.6682 16.5697 30.0814 16.8129 30.0814 17.2992V26.5768C30.0814 27.0618 30.6682 27.305 31.0118 26.9627L35.6519 22.3252C35.8647 22.1124 35.8647 21.7675 35.6519 21.5547V21.5534Z" fill="white"/>
<path d="M67.9913 17.7552C67.2538 16.2908 66.2745 15.1794 65.052 14.4195C63.8296 13.6596 62.4921 13.2803 61.0397 13.2803C59.3666 13.2803 57.8864 13.649 56.5979 14.3864C55.3093 15.1239 54.297 16.1428 53.5595 17.4406C52.8221 18.7397 52.4534 20.2371 52.4534 21.9314C52.4534 23.6256 52.8115 25.1243 53.5265 26.4221C54.2415 27.7212 55.2274 28.7389 56.4816 29.4763C57.7358 30.2138 59.1776 30.5825 60.8071 30.5825C62.1062 30.5825 63.2613 30.4054 64.275 30.0538C65.2873 29.7023 66.1622 29.1895 66.8996 28.5182C67.6371 27.8468 68.2371 27.0486 68.6996 26.1234L64.8023 24.6049C64.4943 25.2221 64.0529 25.723 63.4807 26.1076C62.9084 26.4935 62.171 26.6851 61.2683 26.6851C60.519 26.6851 59.8199 26.5252 59.171 26.2067C58.5208 25.8882 57.9935 25.4256 57.5864 24.8204C57.2468 24.3155 57.0512 23.7367 56.9943 23.0864H69.0948C69.0948 20.9957 68.7261 19.2182 67.9886 17.7525L67.9913 17.7552ZM57.2296 19.8525C57.2877 19.2433 57.4833 18.7411 57.8203 18.3499C58.2274 17.8767 58.7177 17.5305 59.2899 17.3098C59.8622 17.0904 60.4014 16.9794 60.9076 16.9794C61.4137 16.9794 61.9357 17.0904 62.4763 17.3098C63.0155 17.5305 63.4728 17.8767 63.8468 18.3499C64.156 18.7411 64.3358 19.2433 64.3886 19.8525H57.2296Z" fill="#212121"/>
<path d="M83.8354 14.0745C82.909 13.5446 81.7949 13.2803 80.4932 13.2803C79.1914 13.2803 78.1381 13.6067 77.1998 14.2569C76.5826 14.6851 76.0592 15.2389 75.6231 15.9155L75.4288 13.2803H71.3253V30.5851H75.6932V21.5547C75.6932 20.1644 75.9958 19.1177 76.6037 18.4107C77.2103 17.7049 78.076 17.3627 79.202 17.3851C79.8191 17.3851 80.3597 17.5239 80.8236 17.7988C81.2874 18.075 81.6456 18.5217 81.8993 19.1389C82.1531 19.7574 82.2799 20.6283 82.2799 21.753V30.5851H86.6478V20.8596C86.6689 19.0953 86.4377 17.6547 85.9526 16.5406C85.4676 15.4265 84.7619 14.6045 83.8341 14.0745H83.8354Z" fill="#212121"/>
<path d="M98.475 26.3991C98.2107 26.4982 97.9676 26.5484 97.7468 26.5484C97.1508 26.5484 96.6988 26.366 96.3896 26.0026C96.0803 25.6391 95.9257 25.1039 95.9257 24.3982V16.9894H100.062V13.2823H95.9257V9.50391H91.5579V13.2823H88.8777V16.9894H91.5579V25.3576C91.5579 27.0347 92.0257 28.3259 92.964 29.2299C93.901 30.1352 95.2861 30.5872 97.1178 30.5872C97.7574 30.5872 98.4024 30.4603 99.0539 30.2065C99.7041 29.9528 100.295 29.6277 100.825 29.2299L99.3024 25.9537C99.0156 26.1519 98.7394 26.3013 98.475 26.4004V26.3991Z" fill="#212121"/>
<path d="M107.422 16.3649V13.2803H103.054V30.5851H107.422V21.19C107.422 20.3296 107.698 19.6239 108.249 19.0715C108.8 18.5204 109.523 18.1226 110.416 17.8807C111.31 17.6375 112.264 17.516 113.279 17.516V13.2803C112.088 13.2803 110.946 13.5671 109.853 14.1406C108.887 14.6481 108.076 15.3908 107.42 16.3649H107.422Z" fill="#212121"/>
<path d="M119.876 13.2803H115.509V30.5851H119.876V13.2803Z" fill="#212121"/>
<path d="M117.692 12.0833C118.285 12.0833 118.798 11.8679 119.229 11.4371C119.66 11.0062 119.875 10.4934 119.875 9.90006C119.875 9.30667 119.66 8.79389 119.229 8.36305C118.798 7.93222 118.285 7.7168 117.692 7.7168C117.098 7.7168 116.609 7.93222 116.168 8.36305C115.727 8.79389 115.507 9.30667 115.507 9.90006C115.507 10.4934 115.727 11.0062 116.168 11.4371C116.608 11.8679 117.117 12.0833 117.692 12.0833Z" fill="#212121"/>
</g>
<defs>
<clipPath id="clip0_8027_1574">
<rect width="120" height="43.8767" fill="white"/>
</clipPath>
</defs>
</svg>
